<?xml version="1.0" encoding="UTF-8"?>
<svg width="666.67" height="666.67" version="1.1" viewBox="0 0 666.67 666.67" xml:space="preserve" xmlns="http://www.w3.org/2000/svg" xmlns:cc="http://creativecommons.org/ns#" xmlns:dc="http://purl.org/dc/elements/1.1/" xmlns:rdf="http://www.w3.org/1999/02/22-rdf-syntax-ns#"><metadata><rdf:RDF><cc:Work rdf:about=""><dc:format>image/svg+xml</dc:format><dc:type rdf:resource="http://purl.org/dc/dcmitype/StillImage"/></cc:Work></rdf:RDF></metadata><defs><clipPath id="clipPath78"><path d="m1710.6 2574.1-537.24 537.2 253.57 253.56 788.36-790.76z"/></clipPath><linearGradient id="linearGradient86" x2="1" gradientTransform="matrix(789.56 -789.56 789.56 789.56 1300.1 3238.1)" gradientUnits="userSpaceOnUse"><stop stop-color="#5384cc" offset="0"/><stop stop-color="#4253ad" offset=".58304"/><stop stop-color="#4344a3" offset="1"/></linearGradient><clipPath id="clipPath96"><path d="m1426.1 3364 283.66 283.63h504.69l-536.4-536.34z"/></clipPath><linearGradient id="linearGradient104" x2="1" gradientTransform="matrix(536.38 536.38 -536.38 536.38 1551.9 3237.4)" gradientUnits="userSpaceOnUse"><stop stop-color="#3957af" offset="0"/><stop stop-color="#426abc" offset=".26906"/><stop stop-color="#70d0dc" offset="1"/></linearGradient><clipPath id="clipPath114"><path d="m2784.1 3647.2-0.43 0.84-821.22-821.23 251.96-252.73 1073.8 1073.8z"/></clipPath><linearGradient id="linearGradient122" x2="1" gradientTransform="matrix(1073.8 1073.8 1073.8 -1073.8 2088.2 2700.3)" gradientUnits="userSpaceOnUse"><stop stop-color="#4c3499" offset="0"/><stop stop-color="#5d4aa8" offset=".49979"/><stop stop-color="#8a6ebe" offset="1"/></linearGradient><clipPath id="clipPath132"><path d="m3826.7 3110.6-537.25 537.2h-1.26l-252.1-252.09 537.03-538.68z"/></clipPath><linearGradient id="linearGradient140" x2="1" gradientTransform="matrix(537.85 -537.85 -537.85 -537.85 3162 3521.7)" gradientUnits="userSpaceOnUse"><stop stop-color="#4f47a5" offset="0"/><stop stop-color="#6e45a6" offset=".43"/><stop stop-color="#974cac" offset="1"/></linearGradient><clipPath id="clipPath150"><path d="m3573.3 2857.3-283.67-283.63h-504.68l536.4 536.34z"/></clipPath><linearGradient id="linearGradient158" x2="1" gradientTransform="matrix(536.38 536.38 -536.38 536.38 2911.1 2447.5)" gradientUnits="userSpaceOnUse"><stop stop-color="#e58fcd" offset="0"/><stop stop-color="#a948aa" offset=".58499"/><stop stop-color="#84349e" offset="1"/></linearGradient></defs><g transform="matrix(.24804 0 0 -.24804 -286.78 1105)"><g clip-path="url(#clipPath78)"><path d="m1710.6 2574.1-537.24 537.2 253.57 253.56 788.36-790.76h-504.69" fill="url(#linearGradient86)"/></g><g clip-path="url(#clipPath96)"><path d="m1426.1 3364 283.66 283.63h504.69l-536.4-536.34-251.95 252.71" fill="url(#linearGradient104)"/></g><g clip-path="url(#clipPath114)"><path d="m2784.1 3647.2-0.43 0.84-821.22-821.23 251.96-252.73 1073.8 1073.8-504.06-0.63" fill="url(#linearGradient122)"/></g><g clip-path="url(#clipPath132)"><path d="m3826.7 3110.6-537.25 537.2h-1.26l-252.1-252.09 537.03-538.68 253.58 253.57" fill="url(#linearGradient140)"/></g><g clip-path="url(#clipPath150)"><path d="m3573.3 2857.3-283.67-283.63h-504.68l536.4 536.34 251.95-252.71" fill="url(#linearGradient158)"/></g></g></svg>
